
<svg width="155px" height="157px" viewBox="0 0 155 157" version="1.1" xmlns="http://www.w3.org/2000/svg" xmlns:xlink="http://www.w3.org/1999/xlink">
    <!-- Generator: Sketch 50.2 (55047) - http://www.bohemiancoding.com/sketch -->
    <desc>Created with Sketch.</desc>
    <defs>
        <linearGradient x1="50%" y1="13.4072581%" x2="50%" y2="100%" id="linearGradient-1">
            <stop stop-color="#35688A" offset="0%"></stop>
            <stop stop-color="#2A3750" offset="100%"></stop>
        </linearGradient>
        <circle id="path-2" cx="77.5" cy="77.5" r="77.5"></circle>
        <filter x="-0.6%" y="-0.6%" width="101.3%" height="102.6%" filterUnits="objectBoundingBox" id="filter-3">
            <feOffset dx="0" dy="2" in="SourceAlpha" result="shadowOffsetOuter1"></feOffset>
            <feColorMatrix values="0 0 0 0 0   0 0 0 0 0   0 0 0 0 0  0 0 0 0.219401042 0" type="matrix" in="shadowOffsetOuter1"></feColorMatrix>
        </filter>
        <filter x="-2.8%" y="-3.7%" width="105.6%" height="104.9%" filterUnits="objectBoundingBox" id="filter-4">
            <feOffset dx="0" dy="-1" in="SourceAlpha" result="shadowOffsetOuter1"></feOffset>
            <feColorMatrix values="0 0 0 0 0   0 0 0 0 0   0 0 0 0 0  0 0 0 0.5 0" type="matrix" in="shadowOffsetOuter1" result="shadowMatrixOuter1"></feColorMatrix>
            <feMerge>
                <feMergeNode in="shadowMatrixOuter1"></feMergeNode>
                <feMergeNode in="SourceGraphic"></feMergeNode>
            </feMerge>
        </filter>
    </defs>
    <g id="Page-1" stroke="none" stroke-width="1" fill="none" fill-rule="evenodd">
        <g id="Group-29">
            <g id="presed-in-lighter-top">
                <use fill="black" fill-opacity="1" filter="url(#filter-3)" xlink:href="#path-2"></use>
                <use fill="url(#linearGradient-1)" fill-rule="evenodd" xlink:href="#path-2"></use>
            </g>
            <g id="arrow-right" filter="url(#filter-4)" transform="translate(68.000000, 57.000000)" fill="#354666" fill-rule="nonzero">
                <path d="M0.6825,5.11270588 L11.0725,20.8684118 L0.58,36.1384706 C-0.3175,37.5068824 0.0475,39.3508235 1.4,40.2588824 C2.7475,41.172 4.5775,40.8027059 5.475,39.4368235 L17.05,22.5201176 C17.71,21.5235294 17.715,20.2234118 17.055,19.2217647 L5.5825,1.81941176 C4.6825,0.448470588 2.8525,0.0791764706 1.5025,0.987235294 C0.65,1.56394118 0.1925,2.50741176 0.1925,3.46858824 C0.1925,4.03770588 0.3475,4.60682353 0.6825,5.11270588 Z" id="Shape"></path>
            </g>
        </g>
    </g>
</svg>